<?xml version="1.0" encoding="UTF-8"?>
<svg id="Layer_2" data-name="Layer 2" xmlns="http://www.w3.org/2000/svg" viewBox="0 0 775.97 918.09">
  <defs>
    <style>
      .cls-1 {
        fill: #fff;
      }

      .cls-2 {
        fill: #d37431;
      }
    </style>
  </defs>
  <g id="Layer_1-2" data-name="Layer 1">
    <g>
      <path class="cls-1" d="M77.48,878.86l-32.38-.07v-7.08s39.78.02,39.78.02c1.05,9.34-.2,18.5-4.73,26.6-12.71,22.75-45.87,26.13-65.35,8.24-9.71-8.92-14.94-21.9-14.12-35.57,1.56-26.05,24.18-44.76,49.99-41.06,9.38,1.35,17.6,4.67,24.21,11.93l-5.49,5.58c-6.03-6.66-13.32-9.86-21.83-10.55-21.37-1.72-38.8,14.45-39.23,35.78-.23,11.17,4.08,21.56,11.89,28.64,8.53,7.74,19.56,10.6,30.87,8.89,15.56-2.37,26.87-14.98,26.39-31.35Z"/>
      <path class="cls-1" d="M438.18,873.72c0,24.21-19.62,43.83-43.83,43.83s-43.83-19.62-43.83-43.83,19.62-43.83,43.83-43.83,43.83,19.62,43.83,43.83ZM421.88,897.32c10.78-14.06,10.52-33.37.06-47.16-9.52-12.55-26.29-16.5-40.73-10.92s-22.37,19.27-22.32,34.7c.05,15.4,8.83,29.25,22.74,34.4,14.3,5.29,30.61,1.55,40.25-11.02Z"/>
      <path class="cls-1" d="M242.05,916.09l-23.9-35.27-16.71.15-.02,34.91c-2.54.1-4.67.08-7.57-.11v-84.29c10.34-.12,20.46-.29,30.83.13,8.45.34,15.92,5.8,19.42,11.83,4.64,7.99,4.53,17.07.14,24.47-3.84,6.47-9.79,10.14-17.62,12.31l24.15,35.54-8.72.33ZM224.49,873.2c9.69-1.31,15.85-9.58,15.25-18.27s-7.36-15.79-16.48-16.07c-7.43-.23-14.59-.14-21.85.02l.05,34.79c7.9-.12,15.27.57,23.02-.47Z"/>
      <path class="cls-1" d="M597.07,831.54l7.63-.08-.16,56.66c-.03,9.08-3.97,18.04-11.04,23.54-10.24,7.96-24.93,8.57-35.95,1.68-8.47-5.3-13.63-15.05-13.66-25.21l-.17-56.63,7.48-.02.12,55.17c.02,7.18,2.73,14.32,8.15,18.9,8.21,6.93,20.67,6.99,29.04.26,5.13-4.13,8.4-10.83,8.41-17.61l.13-56.64Z"/>
      <path class="cls-1" d="M722.87,880.88l-.03,34.63c-2.26.62-4.88.65-7.57.19v-84.32s30.3.26,30.3.26c13.51.11,23.19,11.39,23.43,24s-9.62,24.13-23.32,24.97c-7.46.45-14.57.2-22.81.27ZM744.72,873.38c9.88-.08,16.67-8.84,16.49-17.69s-7.39-16.86-16.92-16.88l-21.45-.06.04,34.81,21.84-.18Z"/>
      <g>
        <path class="cls-2" d="M.01,769.34v-64.73c2.41-1.23,5.14-1.15,8.79-.62l.15,60.66,755.66-.03V221.57c3.39-.42,5.89-.4,8.84.29v547.15c0,2.75-1.91,4.6-4.76,4.6H3.79c-2.27,0-3.78-2.59-3.78-4.27Z"/>
        <path class="cls-2" d="M764.59,8.97H8.92s-.11,62.07-.11,62.07l-8.78.17L0,4.63C0,2.36,1.91,0,4.61,0h763.3c4.14,0,5.56,2.67,5.56,6.14l-.05,64.92-8.79.11-.05-62.2Z"/>
        <path class="cls-1" d="M366.41,679.02L9.46,322.02l.04,345.44c-3.19.24-5.8.24-8.97-.04v-356.09c0-1.98,1.34-3.68,2.49-4.22,1.05-.49,3.71-.56,4.88.61l174.78,174.85-.02-357.46-179.4-.06c-.69-2.87-.71-6.09,0-9h284.96s91.16,0,91.16,0c112.83-1.8,209.43,82.38,222.76,194.72,9.19,77.48-22.99,154.14-85.08,201.6l14.76,40.34,36.84,101.27.44,1.22c.15.41.33.93.44,1.18l1.31,2.95c-.08.93.18.68.98-.62L767.36,121.29c2.93.21,5.4,1.17,8.6,2.78l-200.65,551.55c-.69,1.88-2.79,2.84-4.08,2.8s-3.61-1.01-4.21-2.66l-57.44-157.76c-40.03,27.73-86.56,41.62-135.76,39.7l-.02,118.13c-.48,1.82-1.42,3.35-2.63,3.92-1.01.47-3.6.44-4.76-.72ZM373.81,303.02v245.63c47.43,1.92,93.58-11.6,132.5-39.67L366.63,125.01l-174.97.17.03,366.36,173.15,173.13v-362.37c3.61-.19,6.45-.53,8.98.73ZM525.24,180.31c-40.14-36.56-93.22-56.8-148.96-55.19l137.45,377.97c102.52-80.06,108.96-234.01,11.51-322.78Z"/>
      </g>
    </g>
  </g>
</svg>